<svg width="65" height="99" viewBox="0 0 65 99" fill="none" xmlns="http://www.w3.org/2000/svg">
<path d="M65 0.0512695L65 65.0513L-2.84124e-06 65.0513L0 0.0512667L65 0.0512695Z" fill="#C1A0DE"/>
<path d="M31.2929 97.7584C31.6834 98.1489 32.3166 98.1489 32.7071 97.7584L39.0711 91.3944C39.4616 91.0039 39.4616 90.3707 39.0711 89.9802C38.6805 89.5897 38.0474 89.5897 37.6569 89.9802L32 95.6371L26.3431 89.9802C25.9526 89.5897 25.3195 89.5897 24.9289 89.9802C24.5384 90.3707 24.5384 91.0039 24.9289 91.3944L31.2929 97.7584ZM32 17.0513L31 17.0513L31 97.0513L32 97.0513L33 97.0513L33 17.0513L32 17.0513Z" fill="black"/>
</svg>
