<svg width="41" height="42" viewBox="0 0 41 42" fill="none" xmlns="http://www.w3.org/2000/svg">
<rect y="0.0512695" width="41" height="41" rx="20.5" fill="#6B34A6"/>
<path d="M30 15.7509V15.6158C30 14.9356 29.714 14.2833 29.205 13.8024C28.696 13.3215 28.0056 13.0513 27.2857 13.0513H13.7143C12.9944 13.0513 12.304 13.3215 11.795 13.8024C11.286 14.2833 11 14.9356 11 15.6158V15.7509L19.7889 20.8611C20.0027 20.9854 20.2489 21.0513 20.5 21.0513C20.7511 21.0513 20.9973 20.9854 21.2111 20.8611L30 15.7509Z" fill="white"/>
<path d="M11 17.0513V25.2015C11 25.9573 11.286 26.6822 11.795 27.2166C12.304 27.751 12.9944 28.0513 13.7143 28.0513H27.2857C28.0056 28.0513 28.696 27.751 29.205 27.2166C29.714 26.6822 30 25.9573 30 25.2015V17.0513L21.9223 22.2691C21.4946 22.5454 21.0022 22.6917 20.5 22.6917C19.9978 22.6917 19.5054 22.5454 19.0777 22.2691L11 17.0513Z" fill="white"/>
</svg>
