<svg width="16" height="18" viewBox="0 0 16 18" fill="none" xmlns="http://www.w3.org/2000/svg">
<path d="M9.2824 11.9773C9.42697 12.0484 9.58984 12.0647 9.74418 12.0233C9.89853 11.982 10.0351 11.8856 10.1315 11.75L10.38 11.4013C10.5104 11.215 10.6795 11.0638 10.8739 10.9596C11.0683 10.8555 11.2827 10.8013 11.5 10.8013H13.6C13.9713 10.8013 14.3274 10.9593 14.5899 11.2406C14.8525 11.5219 15 11.9034 15 12.3013V14.5513C15 14.9491 14.8525 15.3306 14.5899 15.6119C14.3274 15.8932 13.9713 16.0513 13.6 16.0513C10.2583 16.0513 7.05341 14.629 4.69045 12.0972C2.3275 9.56547 1 6.13169 1 2.55127C1 2.15344 1.1475 1.77191 1.41005 1.49061C1.6726 1.2093 2.0287 1.05127 2.4 1.05127H4.5C4.8713 1.05127 5.2274 1.2093 5.48995 1.49061C5.7525 1.77191 5.9 2.15344 5.9 2.55127V4.80127C5.9 5.03414 5.8494 5.26381 5.7522 5.47209C5.655 5.68037 5.51387 5.86155 5.34 6.00127L5.0124 6.26452C4.88389 6.36965 4.79331 6.51921 4.75605 6.68778C4.71879 6.85636 4.73715 7.03355 4.808 7.18927C5.76468 9.27117 7.3381 10.9549 9.2824 11.9773Z" stroke="#5D35B5" stroke-width="2" stroke-linecap="round" stroke-linejoin="round"/>
</svg>
