<svg width="34" height="42" viewBox="0 0 34 42" fill="none" xmlns="http://www.w3.org/2000/svg">
<path d="M33.1611 41.0508H30.3477V38.3037H33.1611V41.0508ZM13.6377 2.77832H10.9102V8.2334H16.3652V2.77832H19.0928V8.2334H19.0938L16.3662 10.9609V8.2334H16.3652V10.9609H10.9102V16.416L16.3174 21.8232H24.5869V19.1436H27.4678V24.6367L27.4668 24.6377H24.7871V30.0645H24.7207V32.8105H30.3477V38.3037H27.5342V35.5576H21.9072V32.8105H19.1602V30.0645H10.9199V30.0537H5.45605V24.6367H5.45508V30.0537H5.45605L2.72852 32.7812V30.0537H2.72754V35.5088H5.45508V38.2363H2.72754L0 35.5088V30.0537L5.42676 24.627V21.4883H5.45605V19.1455L0 13.6895V13.6885V10.9609H5.45508V12.5518L5.45605 12.5527V10.9609H8.18262V2.77832L10.9102 0.0507812H13.6377V2.77832Z" fill="#2A2A2A"/>
</svg>
